<?xml version="1.0" encoding="UTF-8"?>
<!DOCTYPE svg PUBLIC "-//W3C//DTD SVG 1.1//EN" "http://www.w3.org/Graphics/SVG/1.1/DTD/svg11.dtd">
<!-- Creator: CorelDRAW 2019 (64-Bit) -->
<svg xmlns="http://www.w3.org/2000/svg" xml:space="preserve" width="6556px" height="2160px" version="1.1" style="shape-rendering:geometricPrecision; text-rendering:geometricPrecision; image-rendering:optimizeQuality; fill-rule:evenodd; clip-rule:evenodd"
viewBox="0 0 6556 2160.15"
 xmlns:xlink="http://www.w3.org/1999/xlink"
 xmlns:xodm="http://www.corel.com/coreldraw/odm/2003">
 <defs>
  <style type="text/css">
   <![CDATA[
    .fil3 {fill:white}
    .fil4 {fill:black;fill-rule:nonzero}
    .fil0 {fill:#00AA11;fill-rule:nonzero}
    .fil2 {fill:#00AED6;fill-rule:nonzero}
    .fil1 {fill:black;fill-rule:nonzero}
   ]]>
  </style>
 </defs>
 <g id="Layer_x0020_1">
  <metadata id="CorelCorpID_0Corel-Layer"/>
  <path class="fil0" d="M3562.41 1867.8c-6.79,126.88 -63.34,213.77 -171.72,266.38 -31.51,15.29 -60.89,3.2 -75.22,-29.07 -11.06,-24.9 1.59,-53.2 31.27,-66.43 76.76,-34.23 110.46,-104.42 109.02,-170.54 -1.76,-80.37 -49.91,-141.68 -125.66,-168.04 -72.93,-25.39 -149.11,-0.75 -202.92,65.61 -41.35,51 -44.89,139 -8.62,198.05 20.1,32.73 46.73,57.43 81.66,73.9 32.91,15.52 44.52,44.14 31.21,72.46 -13.59,28.93 -45.8,38.19 -78.13,21.87 -86.85,-43.83 -143.72,-111.9 -161.12,-208.5 -27.52,-152.71 67.86,-289.71 205.29,-327.71 162.45,-44.91 318.48,57.69 354.8,206.23 5.73,23.45 7.46,47.87 10.14,65.79z"/>
  <path class="fil1" d="M3977.21 1712.76c0.85,-12.15 1.52,-21.83 2.3,-32.88 28.09,0 55.16,0 83.87,0 0.63,6.16 1.75,11.98 1.76,17.81 0.09,99.13 0.59,198.26 -0.18,297.38 -0.48,61.18 -24.08,111.46 -78.72,142.34 -68.47,38.69 -175.25,26.48 -236.45,-24.93 -5.76,-4.84 -11.25,-10 -17.98,-16.01 18.18,-17.9 36.02,-35.47 55.61,-54.75 30.56,24.52 64.79,36.85 104.8,35.65 61.67,-1.85 92.05,-35.65 84.02,-101.36 -51.61,40.39 -108.59,41.9 -166.43,22.58 -34.5,-11.52 -61.76,-34.63 -81.06,-66.81 -40.78,-67.99 -30.3,-154.28 26.17,-206.94 60.52,-56.44 152.04,-62.25 222.29,-12.08zm-3.5 131.73l0 0c0,-57.44 -31.22,-88.75 -87.95,-88.24 -53.35,0.49 -89.3,35.44 -91.27,84.15 -2.56,63.43 38.71,91.99 93.29,91.25 56.07,-0.76 85.93,-30.43 85.93,-87.16z"/>
  <path class="fil1" d="M5399.54 1678.86c-51.74,48.79 -98.86,93.24 -146.65,138.32 48.62,64.67 96.16,127.9 146.97,195.48 -34.74,0 -63.48,0.86 -92.1,-0.63 -6.68,-0.36 -14.59,-7.47 -19.14,-13.56 -26.4,-35.31 -51.96,-71.27 -77.85,-106.97 -4.36,-6.01 -8.98,-11.83 -16.77,-22.05 -18.65,21.33 -42.4,38.13 -50.49,60.58 -8.47,23.5 -1.89,52.42 -1.89,82.67 -15.5,0 -28.92,0 -42.33,0 -12.82,0 -25.64,0 -40.56,0 -0.57,-9.93 -1.45,-18 -1.45,-26.07 -0.09,-125.05 0.6,-250.12 -0.65,-375.16 -0.24,-24.04 7.13,-31.02 29.89,-28.57 17.15,1.85 34.67,0.37 54.77,0.37 0,75.97 0,149.27 0,228.79 26.28,-23.7 48.13,-43.07 69.6,-62.84 21.82,-20.09 43.09,-40.79 65.05,-60.71 4.76,-4.32 11.4,-9.07 17.29,-9.23 33.17,-0.88 66.38,-0.42 106.31,-0.42z"/>
  <path class="fil1" d="M4752.39 1874.16c5.2,35.31 38.97,62.25 77.88,65.37 32.86,2.63 63.65,-2.18 90.5,-23.54 4.3,-3.41 13.54,-6.1 17.25,-3.83 17.95,11.01 34.79,23.83 53.7,37.19 -58.27,58.03 -124.57,74.01 -200.84,55.17 -61.98,-15.32 -106.97,-50.1 -121.52,-113.71 -31.66,-138.45 74.96,-229.92 198.19,-209.05 71.48,12.11 116.03,54.03 132.78,123.93 5.01,20.9 3.57,43.35 5.32,68.47 -44.76,0 -86.47,0 -128.18,0 -41.09,0 -82.19,0 -125.08,0zm165.42 -63.82l0 0c-5.8,-41.51 -38.77,-61.32 -94.37,-58.71 -39.82,1.87 -66.79,24.51 -68.78,58.71 53.97,0 107.89,0 163.15,0z"/>
  <path class="fil1" d="M4292.46 1674.16c98.55,3.92 171.74,65.28 179.1,160.79 5.02,65.17 -23.63,117.5 -80.97,152.64 -65.64,40.23 -169.75,29.48 -225.33,-24.24 -83.33,-80.55 -57.86,-222.64 48.91,-267.27 24.81,-10.37 52.13,-14.77 78.29,-21.92zm89.61 171.79l0 0c-0.18,-54.22 -34.78,-90.08 -87.11,-89.69 -58.72,0.44 -89.37,38.3 -91.35,89.91 -1.9,49.55 40.63,89.35 90.41,88.99 53.15,-0.39 88.22,-35.92 88.05,-89.21z"/>
  <path class="fil1" d="M4523.25 1679.11c30.21,0 56.8,0 86.99,0 0,7.4 0,14.64 0,21.87 -0.01,120.56 0.06,241.13 -0.05,361.7 -0.05,60.84 -35.52,96.21 -96.36,96.43 -23.45,0.08 -46.91,0.01 -72.9,0.01 0,-14.3 0,-26.28 0,-38.26 0,-12.08 0,-24.17 0,-40.52 15.74,0 29.94,0.57 44.07,-0.12 32.17,-1.55 38.26,-8.13 38.27,-39.85 0.01,-111.41 -0.01,-222.82 -0.02,-334.23 0,-8.24 0,-16.48 0,-27.03z"/>
  <path class="fil0" d="M3168.26 1869.12c-6.59,-48.81 55.25,-107.55 107.78,-104.11 58.11,3.81 106.24,49.18 105.87,107.19 -0.38,57.85 -50.58,108.95 -108.45,107.41 -57.87,-1.54 -108.62,-47.39 -105.2,-110.49z"/>
  <path class="fil1" d="M1156.14 1719.48l89.79 0c48.88,0 77.82,27.61 77.82,71.82 0,44.9 -28.61,71.17 -77.82,71.17l-62.52 0 0 89.79 -27.27 0 0 -232.78zm88.13 117.06l0 0c35.58,0 51.87,-14.3 51.87,-45.24 0,-30.92 -16.96,-45.88 -51.87,-45.88l-60.86 0 0 91.12 60.86 0z"/>
  <path class="fil1" d="M1420.21 1771.03c49.88,0 83.13,37.57 83.13,93.1 0,55.54 -33.25,93.11 -83.13,93.11 -49.55,0 -82.81,-37.57 -82.81,-93.11 0,-55.53 33.26,-93.1 82.81,-93.1zm0 24.27l0 0c-34.93,0 -56.87,26.6 -56.87,68.83 0,42.23 21.94,68.84 56.87,68.84 34.91,0 57.19,-26.61 57.19,-68.84 0,-42.23 -22.28,-68.83 -57.19,-68.83z"/>
  <polygon class="fil1" points="1520,1776.01 1545.6,1776.01 1577.53,1913.02 1578.19,1913.02 1625.41,1776.01 1649.02,1776.01 1696.24,1913.02 1696.9,1913.02 1728.83,1776.01 1754.44,1776.01 1712.21,1952.26 1687.6,1952.26 1637.71,1808.26 1637.06,1808.26 1586.84,1952.26 1562.22,1952.26 "/>
  <path class="fil1" d="M1852.9 1771.03c47.23,0 78.81,35.58 78.81,87.45l0 13.31 -134.01 0c0.66,33.91 22.28,61.85 54.53,61.85 24.95,0 38.91,-8.99 53.87,-35.25l21.62 12.97c-14.96,30.26 -40.57,45.88 -74.82,45.88 -48.89,0 -81.48,-37.57 -81.48,-93.11 0,-55.53 33.6,-93.1 81.48,-93.1zm52.54 79.8l0 0c-0.33,-16.29 -5.65,-29.6 -15.29,-40.23 -9.65,-10.65 -21.95,-15.97 -37.25,-15.97 -29.93,0 -53.87,26.6 -54.54,56.2l107.08 0z"/>
  <path class="fil1" d="M1968.65 1776.01l24.61 0 0 14.63 0.67 0c6.64,-10.97 19.61,-17.63 36.58,-17.63 5.31,0 11.3,1.01 17.62,2.66l-5.66 26.94c-6.31,-1.99 -12.3,-2.98 -17.28,-2.98 -20.96,0 -30.6,13.96 -30.6,46.89l0 105.74 -25.94 0 0 -176.25z"/>
  <path class="fil1" d="M2141.59 1771.03c47.22,0 78.8,35.58 78.8,87.45l0 13.31 -134 0c0.66,33.91 22.28,61.85 54.53,61.85 24.94,0 38.91,-8.99 53.87,-35.25l21.62 12.97c-14.96,30.26 -40.57,45.88 -74.82,45.88 -48.89,0 -81.48,-37.57 -81.48,-93.11 0,-55.53 33.6,-93.1 81.48,-93.1zm52.54 79.8l0 0c-0.33,-16.29 -5.65,-29.6 -15.29,-40.23 -9.66,-10.65 -21.96,-15.97 -37.25,-15.97 -29.93,0 -53.87,26.6 -54.54,56.2l107.08 0z"/>
  <path class="fil1" d="M2329.83 1771.03c21.28,0 40.24,8.97 51.88,23.6l0.66 0 0 -85.13 25.94 0 0 242.76 -24.93 0 0 -17.63 -0.67 0c-11.65,14.3 -31.26,22.61 -52.88,22.61 -45.89,0 -79.15,-38.24 -79.15,-93.11 0,-54.86 33.26,-93.1 79.15,-93.1zm52.54 75.81l0 0c0,-28.6 -23.27,-51.54 -52.54,-51.54 -31.58,0 -53.2,27.26 -53.2,68.83 0,41.57 21.62,68.84 54.86,68.84 27.94,0 50.88,-23.28 50.88,-51.88l0 -34.25z"/>
  <path class="fil1" d="M2566.97 1934.63l0 17.63 -24.94 0 0 -242.76 25.93 0 0 85.13 0.67 0c11.64,-14.63 30.59,-23.6 51.87,-23.6 45.9,0 79.15,38.24 79.15,93.1 0,54.87 -33.25,93.11 -79.15,93.11 -21.61,0 -41.23,-8.31 -52.88,-22.61l-0.65 0zm53.53 -139.33l0 0c-29.25,0 -52.54,22.94 -52.54,51.54l0 34.25c0,28.6 22.95,51.88 50.88,51.88 33.26,0 54.88,-27.27 54.88,-68.84 0,-41.57 -21.62,-68.83 -53.22,-68.83z"/>
  <polygon class="fil1" points="2776.16,1937.3 2708.33,1776.01 2735.92,1776.01 2789.46,1907.37 2790.13,1907.37 2844,1776.01 2871.61,1776.01 2765.85,2027.08 2738.92,2027.08 "/>
  <path class="fil2" d="M715.27 0c395.03,0 715.26,309.04 715.26,690.27 0,381.23 -320.23,690.27 -715.26,690.27 -395.03,0 -715.27,-309.04 -715.27,-690.27 0,-381.23 320.24,-690.27 715.27,-690.27z"/>
  <path class="fil3" d="M1132.51 668.99c-5.45,-87.85 -82.95,-155.21 -174.05,-151.29l-451.81 0c-16.46,0 -29.8,-12.87 -29.8,-28.76 0,-15.88 13.34,-28.76 29.8,-28.76l457.77 0c-2.67,-59.54 -44.79,-110.64 -104.31,-126.55 -133.45,-23 -270.07,-23 -403.53,0 -75.84,17.99 -132.58,78.9 -143.05,153.59 -20.86,135.39 -20.86,273.01 0,408.41 15.97,79.03 81.04,140.22 163.32,153.58 165.44,20.14 332.85,20.14 498.3,0 73.7,-14.41 129.48,-72.88 138.28,-144.96 15.14,-77.53 21.53,-156.4 19.08,-235.26zm-149.02 96.64l0 0 0 25.3c0,15.89 -13.34,28.77 -29.8,28.77 -16.46,0 -29.8,-12.88 -29.8,-28.77l0 -25.3c-9.63,-8.11 -15.08,-19.89 -14.9,-32.22 0,-23.82 20.01,-43.14 44.7,-43.14 24.69,0 44.71,19.32 44.71,43.14 -0.14,12.27 -5.53,23.93 -14.91,32.22z"/>
  <path class="fil4" d="M3467.83 612.61c0.99,-121.03 -99.89,-219.92 -225.3,-220.87 -125.42,-0.95 -227.89,96.4 -228.87,217.43 -0.99,121.04 99.89,219.93 225.31,220.88 1.18,0.01 2.37,0.01 3.56,0 118.99,6.15 220.63,-81.95 227.01,-196.79 0.38,-6.87 0.41,-13.77 0.08,-20.65l-1.79 0zm-674.73 0l0 0c0,-230.08 188.36,-405.53 449.43,-405.53 261.07,0 449.42,176.6 449.42,405.53 0,228.94 -186.57,406.11 -449.42,406.11 -262.86,0 -449.43,-176.59 -449.43,-406.11z"/>
  <path class="fil4" d="M2435.47 654.61c0,94.91 -100.14,172.56 -227.1,172.56 -116.6,11.38 -220.67,-70.62 -232.45,-183.15 -1.2,-11.39 -1.4,-22.86 -0.6,-34.28 0,-125.4 95.36,-211.68 241.99,-211.68 119.22,0 218.16,78.8 218.16,167.96l0 88.59zm8.94 -448.1l0 0 0 90.88c-72.54,-63.57 -168.63,-96.14 -266.44,-90.31 -231.26,2.07 -416.99,184.66 -414.85,407.84 2.14,223.17 191.34,402.42 422.6,400.35 95.21,4.12 187.89,-30.28 255.71,-94.91l0 77.66c0,105.26 -94.18,182.34 -218.16,182.34 -94.68,6.6 -187.95,-25.07 -257.49,-87.43l-144.84 134.6c108.6,102.88 256.21,158.19 408.29,153.01 253.92,0 427.97,-164.51 427.97,-383.67l0 -790.36 -212.79 0z"/>
  <path class="fil4" d="M3823.08 230.09l213.39 0 0 67.88 2.98 0c69.96,-61.54 162.34,-93.81 256.9,-89.74 232.25,8.44 413.43,196.98 404.68,421.1 -8.28,212.29 -184.7,382.55 -404.68,390.54 -90.34,2.02 -178.53,-26.69 -249.15,-81.1l0 384.25 -222.33 0 -1.79 -1092.93zm438.7 167.97l0 0c-119.21,0 -216.37,79.96 -216.37,166.81l0 97.21c0,92.61 95.96,169.12 217.56,169.12 123.94,6.17 229.6,-85.8 235.98,-205.41 6.39,-119.6 -88.9,-221.57 -212.84,-227.73 -7.71,-0.39 -15.43,-0.39 -23.14,0l-1.19 0z"/>
  <path class="fil4" d="M5127.85 538.41c146.03,-18.98 189.54,-39.11 189.54,-78.23 0,-50.62 -55.43,-81.11 -141.26,-81.11 -92.52,-7.3 -176.77,51.54 -198.49,138.63l-209.81 -41.99c29.8,-156.46 196.7,-268.05 402.34,-268.05 232.46,0 376.7,115.04 376.7,301.42l0 488.36 -199.67 0 0 -85.14 -2.99 0c-67.75,73.6 -167.06,112.69 -268.82,105.85 -175.83,0 -298.02,-92.61 -298.02,-230.09 0,-137.48 100.13,-216.29 350.48,-249.65zm207.43 81.11l0 0 -2.98 0c-19.68,27.61 -59.61,43.72 -169.88,62.12 -130.54,23.59 -178.82,48.32 -178.82,93.19 0,44.87 38.74,66.73 122.79,66.73 128.15,0 227.1,-57.53 227.1,-130.58l1.79 -91.46z"/>
  <polygon class="fil4" points="5949.21,954.3 5581.44,230.09 5826.42,230.09 6067.83,731.68 6071.4,731.68 6309.83,230.09 6556,230.09 6005.24,1323.02 5760.26,1323.02 "/>
 </g>
</svg>
